<svg width="25" height="25" viewBox="0 0 25 25" fill="none" xmlns="http://www.w3.org/2000/svg">
<path fill-rule="evenodd" clip-rule="evenodd" d="M10.602 15.766C13.454 15.766 15.766 13.454 15.766 10.602C15.766 7.75 13.454 5.438 10.602 5.438C7.75 5.438 5.438 7.75 5.438 10.602C5.438 13.454 7.75 15.766 10.602 15.766Z" stroke="#3d2b7c" stroke-width="1.5" stroke-linecap="round" stroke-linejoin="round"/>
<path fill-rule="evenodd" clip-rule="evenodd" d="M18.029 15.421L23.71 21.1C24.4305 21.8207 24.4302 22.989 23.7095 23.7095C22.9888 24.43 21.8205 24.4297 21.1 23.709L15.42 18.029V18.029C11.6192 20.4966 6.56866 19.6965 3.71669 16.1749C0.86473 12.6532 1.13177 7.54671 4.3355 4.34175C7.53922 1.1368 12.6456 0.867796 16.1684 3.71841C19.6911 6.56902 20.4932 11.6192 18.027 15.421H18.029Z" stroke="#3d2b7c" stroke-width="1.5" stroke-linejoin="round"/>
</svg>
