<svg width="48" height="48" viewBox="0 0 48 48" fill="none" xmlns="http://www.w3.org/2000/svg">
<path fill-rule="evenodd" clip-rule="evenodd" d="M9.94824 37.5C13.262 37.5 15.9482 34.8137 15.9482 31.5C15.9482 28.1863 13.262 25.5 9.94824 25.5C6.63453 25.5 3.94824 28.1863 3.94824 31.5C3.94824 34.8137 6.63453 37.5 9.94824 37.5Z" stroke="#3D2B7C" stroke-width="3" stroke-linecap="round" stroke-linejoin="round"/>
<path d="M18.4 46.4997C17.1467 42.9058 13.7571 40.498 9.95095 40.498C6.14482 40.498 2.75523 42.9058 1.50195 46.4997" stroke="#3D2B7C" stroke-width="3" stroke-linecap="round" stroke-linejoin="round"/>
<path d="M42.4817 29.1777C43.6674 31.9876 42.5566 35.2398 39.8998 36.7373C37.243 38.2348 33.8856 37.501 32.0957 35.0317" stroke="#3D2B7C" stroke-width="3" stroke-linecap="round" stroke-linejoin="round"/>
<path d="M45.4 46.4997C44.1467 42.9058 40.7571 40.498 36.951 40.498C33.1448 40.498 29.7552 42.9058 28.502 46.4997" stroke="#3D2B7C" stroke-width="3" stroke-linecap="round" stroke-linejoin="round"/>
<path d="M42 1.5H43.5C45.1569 1.5 46.5 2.84315 46.5 4.5V21C46.5 22.6569 45.1569 24 43.5 24H34.5L25.5 33V24H19.5C17.8431 24 16.5 22.6569 16.5 21V4.5C16.5 2.84315 17.8431 1.5 19.5 1.5H22.5" stroke="#3D2B7C" stroke-width="3" stroke-linecap="round" stroke-linejoin="round"/>
<path d="M31.498 12.75C31.9123 12.75 32.248 13.0858 32.248 13.5C32.248 13.9142 31.9123 14.25 31.498 14.25C31.0838 14.25 30.748 13.9142 30.748 13.5C30.748 13.0858 31.0838 12.75 31.498 12.75" stroke="#3D2B7C" stroke-width="3" stroke-linecap="round" stroke-linejoin="round"/>
<path fill-rule="evenodd" clip-rule="evenodd" d="M23.998 8C23.998 7.72386 24.2219 7.5 24.498 7.5H38.498C38.7742 7.5 38.998 7.72386 38.998 8V19C38.998 19.2761 38.7742 19.5 38.498 19.5H24.498C24.2219 19.5 23.998 19.2761 23.998 19V8Z" stroke="#3D2B7C" stroke-width="3" stroke-linecap="round" stroke-linejoin="round"/>
<path d="M27.498 7.5V5.5C27.498 3.29086 29.2889 1.5 31.498 1.5C33.7072 1.5 35.498 3.29086 35.498 5.5V7.5" stroke="#3D2B7C" stroke-width="3" stroke-linecap="round" stroke-linejoin="round"/>
</svg>
