<svg width="115" height="22" viewBox="0 0 115 22" fill="none" xmlns="http://www.w3.org/2000/svg">
<path d="M40.4415 10.5274H41.4061C41.5714 10.5274 41.7368 10.6232 41.8057 10.7738L45.5126 18.6185L49.0954 10.7738C49.1643 10.6232 49.3159 10.5137 49.4951 10.5137H49.936C50.1014 10.5137 50.2668 10.6095 50.3357 10.7601L54.015 18.6048L57.6392 10.7601C57.7081 10.6095 57.8597 10.5 58.0388 10.5H59.0585C59.3755 10.5 59.596 10.8286 59.4582 11.1161L54.4697 21.7262C54.387 21.9042 54.2217 22 54.0288 22C53.8358 22 53.6705 21.8905 53.5878 21.7262L50.1427 14.4565C49.9912 14.128 49.5088 14.128 49.3435 14.4565L45.926 21.7262C45.8433 21.9042 45.6779 22 45.485 22C45.2921 22 45.1267 21.8905 45.0441 21.7262L40.0418 11.1435C39.904 10.856 40.1245 10.5274 40.4415 10.5274Z" fill="#7956F7"/>
<path d="M61 16.2456C61 12.2936 65.1818 9.24946 69.6014 11.0118C71.6853 11.8396 73 13.829 73 15.9785V16.566C73 16.8063 72.8042 16.9932 72.5524 16.9932H62.8042C63.1678 18.8891 64.9161 20.3311 67.042 20.3311C68.0629 20.3311 69 19.9839 69.7273 19.3965C69.9091 19.2496 70.1608 19.263 70.3287 19.4232L70.9301 19.9973C71.1119 20.1709 71.0979 20.4646 70.9021 20.6248C69.8671 21.4659 68.4965 22 67.028 22C63.6853 22 61 19.4098 61 16.2456ZM71.2098 15.3243C70.7622 13.5085 69.0699 12.1601 67.0839 12.1601C65.042 12.1601 63.3217 13.5085 62.8741 15.3243H71.2098Z" fill="#7956F7"/>
<path d="M75 16.2456C75 12.2936 79.1818 9.24946 83.6014 11.0118C85.6853 11.8396 87 13.829 87 15.9785V16.566C87 16.8063 86.8042 16.9932 86.5524 16.9932H76.8042C77.1678 18.8891 78.9161 20.3311 81.042 20.3311C82.0629 20.3311 83 19.9839 83.7273 19.3965C83.9091 19.2496 84.1608 19.263 84.3287 19.4232L84.9301 19.9973C85.1119 20.1709 85.0979 20.4646 84.9021 20.6248C83.8531 21.4659 82.4965 22 81.014 22C77.6713 22 75 19.4098 75 16.2456ZM85.1958 15.3243C84.7483 13.5085 83.0559 12.1601 81.0699 12.1601C79.028 12.1601 77.3077 13.5085 76.8601 15.3243H85.1958Z" fill="#7956F7"/>
<path d="M101 0.42349V21.5636C101 21.8091 100.806 22 100.556 22H99.6821C99.4324 22 99.2381 21.8091 99.2381 21.5636V20.2133C98.1699 21.3317 96.6439 22 94.9653 22C91.6497 22 89 19.3541 89 16.1353C89 12.903 91.6497 10.2707 94.9653 10.2707C96.6301 10.2707 98.1561 10.939 99.2381 12.0573V0.437128C99.2381 0.191631 99.4324 0.000687596 99.6821 0.000687596H100.556C100.792 -0.0129512 101 0.177992 101 0.42349ZM99.2381 16.149C99.2381 13.8304 97.3237 11.9482 95.0347 11.9482C92.6486 11.9482 90.7341 13.8304 90.7341 16.149C90.7341 18.4403 92.6486 20.3088 95.0347 20.3088C97.3237 20.3224 99.2381 18.4403 99.2381 16.149Z" fill="#7956F7"/>
<path d="M104.5 16.8872V10.9523C104.5 10.7056 104.696 10.5137 104.947 10.5137H105.828C106.08 10.5137 106.276 10.7056 106.276 10.9523V16.7913C106.276 18.765 107.66 20.3001 109.799 20.3001C111.784 20.3001 113.224 18.6554 113.224 16.8735V10.9386C113.224 10.6919 113.42 10.5 113.672 10.5H114.553C114.804 10.5 115 10.6919 115 10.9386V21.5611C115 21.8078 114.804 21.9997 114.553 21.9997H113.672C113.42 21.9997 113.224 21.8078 113.224 21.5611V20.6702C112.316 21.4926 111.085 21.9997 109.701 21.9997C107.045 22.0271 104.5 19.9575 104.5 16.8872Z" fill="#7956F7"/>
<path d="M32.5655 0H27.5226C27.3867 0 27.2508 0.0681963 27.1692 0.17731L19.5437 10.9932L17.3281 14.1438C17.1378 14.4166 16.7165 14.3757 16.5805 14.0756L15.1669 10.9932L13.6989 7.80161C13.563 7.50155 13.1416 7.46063 12.9513 7.73342L10.6541 10.9932L10.0833 11.8115C9.98811 11.9343 9.97451 12.098 10.0425 12.248L13.4406 19.6541L14.5145 22H15.9825C17.1786 22 18.2932 21.4135 18.9865 20.4451L19.2991 20.0087L25.6469 11.0068L32.9189 0.695599C33.1228 0.395537 32.9189 0 32.5655 0Z" fill="#7956F7"/>
<path d="M8.32288 13.9319L6.93375 10.8839L3.69244 3.75366C3.55625 3.45025 3.13406 3.40887 2.9434 3.6847L0.0834163 7.8084C-0.0119163 7.93253 -0.0255357 8.09803 0.0425591 8.24974L1.24103 10.8839L4.87729 18.8693L5.31309 19.8347C5.91233 21.1587 7.21975 22 8.64974 22H12L11.8366 21.6414L8.32288 13.9319Z" fill="#7956F7"/>
</svg>
