<svg width="403" height="78" viewBox="0 0 403 78" fill="none" xmlns="http://www.w3.org/2000/svg">
<path d="M141.721 36.8914H145.101C145.681 36.8914 146.26 37.2272 146.502 37.7549L159.492 65.2453L172.047 37.7549C172.289 37.2272 172.82 36.8434 173.448 36.8434H174.993C175.573 36.8434 176.152 37.1792 176.394 37.707L189.287 65.1973L201.988 37.707C202.229 37.1792 202.76 36.7954 203.388 36.7954H206.962C208.072 36.7954 208.845 37.9468 208.362 38.9543L190.881 76.1359C190.591 76.7596 190.012 77.0954 189.335 77.0954C188.659 77.0954 188.08 76.7116 187.79 76.1359L175.718 50.6605C175.186 49.5091 173.496 49.5091 172.917 50.6605L160.941 76.1359C160.651 76.7596 160.071 77.0954 159.395 77.0954C158.719 77.0954 158.14 76.7116 157.85 76.1359L140.32 39.0503C139.838 38.0428 140.61 36.8914 141.721 36.8914Z" fill="white"/>
<path d="M213.766 56.9299C213.766 43.0807 228.42 32.4131 243.908 38.5891C251.211 41.4899 255.818 48.4613 255.818 55.9941V58.0528C255.818 58.895 255.132 59.55 254.249 59.55H220.088C221.362 66.1939 227.489 71.2469 234.939 71.2469C238.517 71.2469 241.8 70.0305 244.349 67.9718C244.986 67.4571 245.868 67.5039 246.457 68.0654L248.564 70.0772C249.201 70.6855 249.152 71.7148 248.466 72.2763C244.839 75.2239 240.036 77.0954 234.89 77.0954C223.176 77.0954 213.766 68.0186 213.766 56.9299ZM249.544 53.7015C247.976 47.3384 242.045 42.6128 235.086 42.6128C227.93 42.6128 221.902 47.3384 220.333 53.7015H249.544Z" fill="white"/>
<path d="M262.826 56.9299C262.826 43.0807 277.481 32.4131 292.968 38.5891C300.271 41.4899 304.878 48.4613 304.878 55.9941V58.0528C304.878 58.895 304.192 59.55 303.31 59.55H269.149C270.423 66.1939 276.55 71.2469 283.999 71.2469C287.577 71.2469 290.861 70.0305 293.41 67.9718C294.047 67.4571 294.929 67.5039 295.517 68.0654L297.625 70.0772C298.262 70.6855 298.213 71.7148 297.527 72.2763C293.851 75.2239 289.097 77.0954 283.901 77.0954C272.187 77.0954 262.826 68.0186 262.826 56.9299ZM298.556 53.7015C296.987 47.3384 291.057 42.6128 284.097 42.6128C276.942 42.6128 270.913 47.3384 269.345 53.7015H298.556Z" fill="white"/>
<path d="M353.939 1.48406V75.5662C353.939 76.4265 353.258 77.0956 352.383 77.0956H349.32C348.445 77.0956 347.765 76.4265 347.765 75.5662V70.8345C344.021 74.7537 338.674 77.0956 332.791 77.0956C321.172 77.0956 311.887 67.8234 311.887 56.5438C311.887 45.2164 321.172 35.992 332.791 35.992C338.625 35.992 343.973 38.334 347.765 42.2531V1.53185C347.765 0.671541 348.445 0.00240958 349.32 0.00240958H352.383C353.21 -0.0453854 353.939 0.623747 353.939 1.48406ZM347.765 56.5916C347.765 48.4665 341.056 41.8708 333.034 41.8708C324.673 41.8708 317.964 48.4665 317.964 56.5916C317.964 64.6212 324.673 71.1691 333.034 71.1691C341.056 71.2169 347.765 64.6212 347.765 56.5916Z" fill="white"/>
<path d="M366.204 59.1784V38.3805C366.204 37.5159 366.89 36.8434 367.772 36.8434H370.859C371.741 36.8434 372.427 37.5159 372.427 38.3805V58.8422C372.427 65.7589 377.277 71.1385 384.773 71.1385C391.731 71.1385 396.777 65.3746 396.777 59.1304V38.3324C396.777 37.4679 397.463 36.7954 398.345 36.7954H401.432C402.314 36.7954 403 37.4679 403 38.3324V75.5574C403 76.422 402.314 77.0945 401.432 77.0945H398.345C397.463 77.0945 396.777 76.422 396.777 75.5574V72.4353C393.593 75.3173 389.281 77.0945 384.43 77.0945C375.121 77.1905 366.204 69.9377 366.204 59.1784Z" fill="white"/>
<path d="M114.121 0H96.4494C95.973 0 95.4967 0.238984 95.2109 0.621355L68.4886 38.5239L60.7243 49.5649C60.0574 50.5208 58.5808 50.3774 58.1045 49.3259L53.1506 38.5239L48.0062 27.3396C47.5299 26.288 46.0532 26.1446 45.3864 27.1006L37.3363 38.5239L35.3357 41.3917C35.0023 41.8219 34.9546 42.3954 35.1928 42.9212L47.1012 68.8747L50.8642 77.0956H56.0086C60.2004 77.0956 64.1063 75.0404 66.5356 71.6469L67.6312 70.1174L89.876 38.5717L115.36 2.43762C116.074 1.3861 115.36 0 114.121 0Z" fill="#3D2B7C"/>
<path d="M29.1663 48.8221L24.2983 38.141L12.9396 13.1541C12.4623 12.0908 10.9828 11.9458 10.3147 12.9124L0.29232 27.3633C-0.0417589 27.7983 -0.089486 28.3782 0.149142 28.9099L4.34899 38.141L17.0917 66.1245L18.6189 69.5077C20.7189 74.1474 25.3005 77.0956 30.3117 77.0956H42.0522L41.4795 75.839L29.1663 48.8221Z" fill="white"/>
</svg>
