<svg width="230" height="44" viewBox="0 0 230 44" fill="none" xmlns="http://www.w3.org/2000/svg">
<path d="M80.8829 21.0548H82.8122C83.1429 21.0548 83.4736 21.2464 83.6114 21.5476L91.0252 37.2369L98.1909 21.5476C98.3287 21.2464 98.6318 21.0274 98.9901 21.0274H99.8721C100.203 21.0274 100.534 21.2191 100.671 21.5202L108.03 37.2095L115.278 21.5202C115.416 21.2191 115.719 21 116.078 21H118.117C118.751 21 119.192 21.6571 118.916 22.2321L108.939 43.4524C108.774 43.8083 108.443 44 108.058 44C107.672 44 107.341 43.781 107.176 43.4524L100.285 28.9131C99.9823 28.256 99.0177 28.256 98.687 28.9131L91.852 43.4524C91.6866 43.8083 91.3559 44 90.97 44C90.5842 44 90.2535 43.781 90.0881 43.4524L80.0837 22.2869C79.8081 21.7119 80.2491 21.0548 80.8829 21.0548Z" fill="white"/>
<path d="M122 32.4911C122 24.5871 130.364 18.4989 139.203 22.0237C143.371 23.6792 146 27.6579 146 31.9571V33.132C146 33.6127 145.608 33.9865 145.105 33.9865H125.608C126.336 37.7783 129.832 40.6622 134.084 40.6622C136.126 40.6622 138 39.9679 139.455 38.793C139.818 38.4992 140.322 38.5259 140.657 38.8464L141.86 39.9946C142.224 40.3417 142.196 40.9292 141.804 41.2496C139.734 42.9319 136.993 44 134.056 44C127.371 44 122 38.8197 122 32.4911ZM142.42 30.6487C141.524 27.0171 138.14 24.3201 134.168 24.3201C130.084 24.3201 126.643 27.0171 125.748 30.6487H142.42Z" fill="white"/>
<path d="M150 32.4911C150 24.5871 158.364 18.4989 167.203 22.0237C171.371 23.6792 174 27.6579 174 31.9571V33.132C174 33.6127 173.608 33.9865 173.105 33.9865H153.608C154.336 37.7783 157.832 40.6622 162.084 40.6622C164.126 40.6622 166 39.9679 167.455 38.793C167.818 38.4992 168.322 38.5259 168.657 38.8464L169.86 39.9946C170.224 40.3417 170.196 40.9292 169.804 41.2496C167.706 42.9319 164.993 44 162.028 44C155.343 44 150 38.8197 150 32.4911ZM170.392 30.6487C169.497 27.0171 166.112 24.3201 162.14 24.3201C158.056 24.3201 154.615 27.0171 153.72 30.6487H170.392Z" fill="white"/>
<path d="M202 0.84698V43.1271C202 43.6181 201.612 44 201.112 44H199.364C198.865 44 198.476 43.6181 198.476 43.1271V40.4266C196.34 42.6634 193.288 44 189.931 44C183.299 44 178 38.7082 178 32.2707C178 25.8059 183.299 20.5413 189.931 20.5413C193.26 20.5413 196.312 21.8779 198.476 24.1147V0.874257C198.476 0.383262 198.865 0.00137519 199.364 0.00137519H201.112C201.584 -0.0259023 202 0.355985 202 0.84698ZM198.476 32.298C198.476 27.6608 194.647 23.8965 190.069 23.8965C185.297 23.8965 181.468 27.6608 181.468 32.298C181.468 36.8806 185.297 40.6176 190.069 40.6176C194.647 40.6449 198.476 36.8806 198.476 32.298Z" fill="white"/>
<path d="M209 33.7744V21.9046C209 21.4112 209.391 21.0274 209.895 21.0274H211.656C212.16 21.0274 212.551 21.4112 212.551 21.9046V33.5825C212.551 37.53 215.32 40.6003 219.598 40.6003C223.569 40.6003 226.449 37.3107 226.449 33.747V21.8772C226.449 21.3838 226.84 21 227.344 21H229.105C229.609 21 230 21.3838 230 21.8772V43.1222C230 43.6157 229.609 43.9995 229.105 43.9995H227.344C226.84 43.9995 226.449 43.6157 226.449 43.1222V41.3404C224.631 42.9852 222.17 43.9995 219.402 43.9995C214.089 44.0543 209 39.9149 209 33.7744Z" fill="white"/>
<path d="M65.131 0H55.0453C54.7734 0 54.5016 0.136393 54.3385 0.35462L39.0875 21.9864L34.6563 28.2877C34.2757 28.8332 33.433 28.7514 33.1611 28.1513L30.3338 21.9864L27.3978 15.6032C27.126 15.0031 26.2832 14.9213 25.9026 15.4668L21.3083 21.9864L20.1665 23.6231C19.9762 23.8686 19.949 24.1959 20.085 24.496L26.8813 39.3081L29.0289 44H31.9649C34.3573 44 36.5864 42.827 37.9729 40.8903L38.5982 40.0174L51.2937 22.0136L65.8379 1.3912C66.2456 0.791074 65.8379 0 65.131 0Z" fill="white"/>
<path d="M16.6458 27.8638L13.8675 21.7679L7.38488 7.50732C7.1125 6.90049 6.26812 6.81774 5.88679 7.36941L0.166833 15.6168C-0.0238326 15.8651 -0.0510714 16.1961 0.0851181 16.4995L2.48205 21.7679L9.75457 37.7386L10.6262 39.6694C11.8247 42.3174 14.4395 44 17.2995 44H24L23.6731 43.2828L16.6458 27.8638Z" fill="white"/>
</svg>
